<svg xmlns="http://www.w3.org/2000/svg" xmlns:xlink="http://www.w3.org/1999/xlink" aria-hidden="true" focusable="false" width="16" height="16" style="transform: rotate(360deg);" preserveAspectRatio="xMidYMid meet"><rect id="backgroundrect" width="100%" height="100%" x="0" y="0" fill="none" stroke="none" class="" style=""/><g class="currentLayer" style=""><title>Layer 1</title><path d="M15.169328143879845,9.13465990477188 q0,0.2555930327079214 -0.17238066956424425,0.44237255660986385 t-0.408270006862684,0.18677952390194258 h-2.0322773674942467 q0,1.6810157151174807 -0.6078686768844406,2.8508453648191194 l1.8871146983875149,2.0545747629213644 q0.17238066956424425,0.18677952390194258 0.17238066956424425,0.44237255660986385 t-0.17238066956424425,0.44237255660986385 q-0.16330800274507368,0.18677952390194258 -0.408270006862684,0.18677952390194258 t-0.408270006862684,-0.18677952390194258 l-1.7963880301958075,-1.9366087478254013 q-0.04536333409585385,0.04915250628998495 -0.1360900022875614,0.1277965163539606 t-0.38105200640517145,0.28016928585291373 t-0.589723343246099,0.35881329591688993 t-0.7439586791720016,0.28508453648191195 t-0.880048681459563,0.1277965163539606 V5.988899502212854 H7.330544012116323 v8.808129127165277 q-0.46270600777770826,0 -0.9208756821458312,-0.13271176698295908 t-0.7893220132678548,-0.3244065415139003 t-0.5987960100652696,-0.3833895490618824 T4.626889300003439,13.637029480934487 l-0.1360900022875614,-0.1376270176119575 l-1.6602980279082464,2.0349137604053715 q-0.18145333638341524,0.20644052641793634 -0.4354880073201963,0.20644052641793634 q-0.21774400366009827,0 -0.39012467322434297,-0.15728802012795154 q-0.17238066956424425,-0.1769490226439457 -0.1859896697930004,-0.4374573059808653 T1.9595252551672404,14.688893115540164 l1.832678697472492,-2.2315237855653103 q-0.5262146755119034,-1.1206771434116534 -0.5262146755119034,-2.693557344691167 H1.2337119096335813 q-0.23588933729843975,0 -0.408270006862684,-0.18677952390194258 T0.6530612332066535,9.13465990477188 t0.17238066956424425,-0.44237255660986385 t0.408270006862684,-0.18677952390194258 h2.0322773674942467 V5.615340454408967 L1.6964179174112899,3.9146637367754926 q-0.17238066956424425,-0.18677952390194258 -0.17238066956424425,-0.44237255660986385 t0.17238066956424425,-0.44237255660986385 t0.408270006862684,-0.18677952390194258 t0.408270006862684,0.18677952390194258 l1.5695713597165386,1.7006767176334747 h7.657330795380108 l1.5695713597165386,-1.7006767176334747 q0.17238066956424425,-0.18677952390194258 0.408270006862684,-0.18677952390194258 t0.408270006862684,0.18677952390194258 t0.17238066956424425,0.44237255660986385 t-0.17238066956424425,0.44237255660986385 l-1.5695713597165386,1.7006767176334747 v2.890167369851107 h2.0322773674942467 q0.23588933729843975,0 0.408270006862684,0.18677952390194258 t0.17238066956424425,0.44237255660986385 zm-4.354880073201958,-5.66236872460625 H5.007941306408611 q0,-1.307456667313596 0.8482943475924647,-2.226608534936312 T7.911194688543249,0.32653077760660265 t2.0549590345421738,0.9191518676227171 T10.814448070677887,3.47229118016563 z" fill="#c5c5c5" id="svg_1" class="selected"/></g></svg>