<?xml version="1.0" encoding="UTF-8" standalone="no"?>
<!DOCTYPE svg PUBLIC "-//W3C//DTD SVG 1.1//EN" "http://www.w3.org/Graphics/SVG/1.1/DTD/svg11.dtd">
<svg version="1.1" xmlns="http://www.w3.org/2000/svg" xmlns:xlink="http://www.w3.org/1999/xlink" preserveAspectRatio="xMidYMid meet" viewBox="0 0 16 16" width="16" height="16"><defs><path d="M0.95 6.67L0.95 1.87C1.94 2.87 2.49 3.43 2.6 3.54C2.73 3.39 2.85 3.24 2.99 3.1C5.84 0.24 10.45 0.24 13.29 3.1C16.14 5.95 16.14 10.59 13.29 13.44C10.44 16.3 5.82 16.3 2.97 13.44C2.97 13.44 2.02 12.32 1.7 11.72C1.86 11.65 3.12 11.09 3.28 11.02C3.51 11.43 4.19 12.22 4.19 12.22C6.37 14.41 9.89 14.41 12.07 12.22C14.25 10.04 14.25 6.5 12.07 4.31C9.89 2.13 6.36 2.13 4.19 4.31C4.04 4.46 3.91 4.53 3.78 4.69C3.92 4.82 4.6 5.48 5.82 6.67L0.95 6.67Z" id="a3iaATq0Fy"></path></defs><g><g><use xlink:href="#a3iaATq0Fy" opacity="1" fill="#c5c5c5" fill-opacity="1"></use><g><use xlink:href="#a3iaATq0Fy" opacity="1" fill-opacity="0" stroke="#000000" stroke-width="1" stroke-opacity="0"></use></g></g></g></svg>