<?xml version="1.0" encoding="UTF-8" standalone="no"?>
<!DOCTYPE svg PUBLIC "-//W3C//DTD SVG 1.1//EN" "http://www.w3.org/Graphics/SVG/1.1/DTD/svg11.dtd">
<svg version="1.1" xmlns="http://www.w3.org/2000/svg" xmlns:xlink="http://www.w3.org/1999/xlink" preserveAspectRatio="xMidYMid meet" viewBox="0 0 32 32" width="32" height="32"><defs><path d="M23.8 4.76L23.89 4.79L23.97 4.82L24.05 4.86L24.11 4.9L24.18 4.94L24.23 4.98L24.28 5.02L24.32 5.05L24.36 5.08L24.39 5.1L24.41 5.11L24.47 5.17L24.52 5.23L24.57 5.29L24.62 5.35L24.66 5.42L24.69 5.49L24.73 5.55L24.76 5.62L24.78 5.7L24.8 5.77L24.82 5.84L24.83 5.92L24.84 6L24.85 6.08L24.85 6.16L24.85 7.64L24.97 7.64L25.08 7.66L25.18 7.68L25.27 7.71L25.36 7.74L25.45 7.78L25.52 7.81L25.59 7.85L25.65 7.9L25.71 7.93L25.76 7.97L25.8 8L25.83 8.03L25.86 8.05L25.89 8.06L25.97 8.15L26.04 8.24L26.1 8.33L26.15 8.41L26.19 8.5L26.22 8.58L26.24 8.66L26.26 8.74L26.28 8.81L26.29 8.88L26.3 8.94L26.31 8.99L26.31 9.04L26.32 9.08L26.33 9.1L26.32 9.22L26.31 9.33L26.29 9.43L26.26 9.53L26.22 9.62L26.19 9.7L26.14 9.78L26.1 9.85L26.06 9.91L26.02 9.97L25.98 10.02L25.95 10.06L25.92 10.1L25.9 10.13L25.89 10.15L25.83 10.21L25.77 10.26L25.71 10.31L25.64 10.35L25.58 10.39L25.51 10.43L25.44 10.46L25.38 10.49L25.31 10.52L25.23 10.54L25.16 10.56L25.08 10.57L25.01 10.58L24.93 10.59L24.85 10.59L21.9 26.82L21.88 26.92L21.85 27.03L21.82 27.12L21.78 27.22L21.74 27.3L21.7 27.38L21.66 27.46L21.62 27.53L21.57 27.59L21.54 27.64L21.5 27.69L21.47 27.74L21.44 27.78L21.42 27.81L21.41 27.83L21.35 27.89L21.29 27.94L21.24 28L21.18 28.04L21.12 28.09L21.05 28.12L20.99 28.16L20.93 28.19L20.86 28.22L20.79 28.24L20.72 28.26L20.65 28.27L20.58 28.28L20.5 28.29L20.43 28.29L11.57 28.29L11.46 28.29L11.36 28.27L11.26 28.25L11.17 28.22L11.09 28.18L11.01 28.14L10.94 28.1L10.87 28.06L10.82 28.01L10.76 27.97L10.72 27.93L10.68 27.9L10.65 27.87L10.62 27.84L10.59 27.83L10.54 27.77L10.49 27.71L10.45 27.64L10.4 27.58L10.36 27.51L10.32 27.45L10.29 27.38L10.25 27.31L10.22 27.24L10.2 27.17L10.17 27.1L10.15 27.03L10.13 26.96L10.11 26.89L10.1 26.82L7.15 10.59L7.03 10.58L6.92 10.57L6.81 10.55L6.71 10.52L6.62 10.48L6.54 10.45L6.47 10.41L6.4 10.36L6.34 10.32L6.28 10.28L6.23 10.25L6.19 10.21L6.15 10.18L6.12 10.16L6.1 10.15L6.02 10.06L5.95 9.97L5.9 9.88L5.85 9.79L5.81 9.71L5.78 9.62L5.75 9.54L5.73 9.46L5.72 9.39L5.71 9.32L5.7 9.26L5.69 9.21L5.69 9.16L5.68 9.13L5.67 9.1L5.68 8.98L5.69 8.87L5.71 8.77L5.74 8.67L5.77 8.58L5.81 8.5L5.85 8.43L5.89 8.36L5.93 8.3L5.97 8.24L6.01 8.19L6.04 8.15L6.07 8.12L6.09 8.09L6.1 8.06L6.16 8.01L6.22 7.96L6.28 7.91L6.34 7.87L6.41 7.83L6.47 7.79L6.54 7.76L6.61 7.73L6.68 7.71L6.76 7.68L6.83 7.67L6.91 7.65L6.99 7.65L7.07 7.64L7.15 7.64L7.15 6.16L7.15 6.04L7.17 5.93L7.19 5.82L7.22 5.73L7.25 5.64L7.29 5.55L7.33 5.48L7.37 5.41L7.41 5.35L7.45 5.29L7.48 5.25L7.51 5.2L7.54 5.17L7.56 5.14L7.58 5.11L7.63 5.06L7.69 5.01L7.75 4.96L7.82 4.92L7.88 4.88L7.95 4.84L8.02 4.81L8.09 4.78L8.16 4.76L8.23 4.73L8.31 4.72L8.38 4.7L8.46 4.69L8.54 4.69L8.62 4.69L23.38 4.69L23.49 4.69L23.6 4.71L23.7 4.73L23.7 4.73L23.8 4.76ZM16.94 12.55L16.94 13.65L16.94 14.76L16.94 15.86L16.94 16.96L16.94 18.06L16.93 19.16L16.92 20.26L16.91 21.36L16.65 21.24L16.38 21.16L16.1 21.1L15.82 21.08L15.54 21.09L15.26 21.12L14.98 21.19L14.71 21.27L14.44 21.38L14.19 21.51L13.95 21.66L13.78 21.78L13.61 21.91L13.44 22.05L13.28 22.2L13.13 22.37L13 22.54L12.88 22.72L12.78 22.91L12.7 23.11L12.64 23.31L12.61 23.53L12.6 23.66L12.61 23.79L12.65 23.93L12.71 24.06L12.79 24.19L12.9 24.33L13.03 24.46L13.18 24.59L13.36 24.73L13.57 24.86L13.79 25L13.96 25.02L14.12 25.03L14.28 25.03L14.45 25.02L14.61 25L14.77 24.97L14.93 24.93L15.09 24.89L15.25 24.84L15.4 24.78L15.55 24.72L15.77 24.61L15.98 24.48L16.19 24.34L16.39 24.19L16.57 24.02L16.75 23.84L16.9 23.64L17.04 23.44L17.15 23.22L17.23 22.99L17.29 22.75L17.3 21.9L17.31 21.06L17.32 20.22L17.32 19.37L17.32 18.53L17.33 17.69L17.32 16.84L17.32 16L17.32 15.15L17.32 14.31L17.32 13.47L17.73 13.55L18.13 13.68L18.5 13.86L18.86 14.07L19.19 14.32L19.5 14.6L19.77 14.91L20.02 15.25L20.23 15.6L20.4 15.98L20.54 16.37L20.63 16.78L20.68 17.18L20.69 17.58L20.67 17.99L20.61 18.39L20.53 18.79L20.42 19.18L20.29 19.57L20.14 19.95L19.98 20.33L19.81 20.7L19.74 20.87L19.71 20.99L19.73 21.05L19.77 21.06L19.84 21.04L19.93 20.98L20.02 20.89L20.11 20.78L20.18 20.66L20.24 20.54L20.27 20.42L20.44 20.05L20.6 19.67L20.75 19.29L20.88 18.9L21 18.5L21.09 18.1L21.15 17.69L21.19 17.29L21.19 16.88L21.17 16.47L21.1 16.06L21.01 15.72L20.89 15.39L20.74 15.07L20.57 14.77L20.38 14.47L20.17 14.19L19.96 13.91L19.73 13.64L19.49 13.38L19.25 13.12L19.02 12.86L18.82 12.66L18.63 12.45L18.45 12.23L18.27 12.01L18.11 11.79L17.95 11.55L17.82 11.31L17.7 11.06L17.6 10.79L17.52 10.52L17.48 10.24L17.45 10.13L17.43 10.01L17.42 9.88L17.4 9.75L17.39 9.62L17.37 9.5L17.33 9.39L17.27 9.31L17.19 9.25L17.08 9.23L16.94 9.25L16.94 10.35L16.94 11.45L16.94 11.45L16.94 12.55Z" id="bhEm1oTbk"></path></defs><g><g><g><use xlink:href="#bhEm1oTbk" opacity="1" fill="#9b4d4d" fill-opacity="1"></use><g><use xlink:href="#bhEm1oTbk" opacity="1" fill-opacity="0" stroke="#ffffff" stroke-width="1" stroke-opacity="0"></use></g></g></g></g></svg>