<svg xmlns="http://www.w3.org/2000/svg" xmlns:xlink="http://www.w3.org/1999/xlink" version="1.1" width="16" height="16" enable-background="new 0 0 300 200" xml:space="preserve" style=""><rect id="backgroundrect" width="100%" height="100%" x="0" y="0" fill="none" stroke="none" class="" style=""/>




<g class="currentLayer" style=""><title>Layer 1</title><g class=""><g id="Calque_3" class="">
	<g id="XMLID_1_">
		<path fill="#D1A41A" d="M3.105951045335498,10.301112660340666 c0.17213093910617094,0.29351856768582496 0.3634569528987928,0.5909632859941817 0.5739780355625544,0.8900569759853315 c-0.6129360791552215,0.2549638267875426 -1.0147831697962937,0.7285353924969663 -1.2654264922876908,1.1466697905371537 c-0.39659400368599146,0.661790936443588 -0.6065187901498604,1.5358292384732903 -0.5582471650468172,2.2859584272312095 H0.8007537177397221 C1.0124389966384544,13.9886261870302 1.8573912236336958,12.153703250525018 3.105951045335498,10.301112660340666 z" id="svg_1"/>
		<path fill="#D1A41A" d="M15.333239237050769,15.021830391823638 h-1.2834573649238614 c-2.944285268497757,-2.124358317835726 -5.529202474816834,-3.6223395244525687 -8.275176546296844,-3.9496229376395604 c0.005820992805468401,-0.5283020162960836 0.0738555868147277,-1.1264894043191265 0.2047000898582932,-1.7930702361598287 l-0.2529717207766477,-0.0940704264338942 c-0.1343370975637842,0.6850337124280766 -0.2047000898582932,1.304971940485564 -0.21284948094901113,1.8598146922132086 c-0.2861087715638465,-0.026540735431561352 -0.5739780355625544,-0.039418493713609636 -0.8647435978815887,-0.039418493713609636 c-0.24598653173621,0 -0.47044959631603067,0.03140915673579576 -0.6751496861743238,0.08606108945608022 c-0.26691370269270664,-0.36827236071701835 -0.4943014559423584,-0.7204475296120345 -0.6873595660050258,-1.0540913000533034 c1.2665622981731552,-1.8236941659874155 3.3525212519793746,-3.4736956912055086 5.168073920203291,-4.094419146171205 c0.5111681323435595,2.349483449744635 1.6085241800803747,3.95928125434091 2.940196377777646,5.042347496457521 c0.09767905609155063,-0.07718799966293884 0.19365440626256028,-0.15759544090657596 0.28786926399870816,-0.24279278558807274 L14.005599137743985,14.200873560657055 l0.10176794681166201,-0.012092523333095316 c0.6344027539819787,-0.07553901993940264 0.9949634085604449,0.40046675240176705 1.090370858696378,0.5484038766069927 C15.268100935546528,14.84491831751436 15.309955277459522,14.943857165252489 15.333239237050769,15.021830391823638 z" id="svg_2"/>
		<path fill="#FFDC76" d="M14.199821444041618,3.4543876312984345 c0.04713582503289007,3.191405894037452 -1.1304647023591983,5.7314643952408755 -2.7791395184320247,7.034080655001812 c-2.7983345873031644,-1.9273443832155412 -3.3252051939976446,-6.811311203817531 -2.8483383144915635,-9.430991927397129 C8.704920216246949,2.059349932867881 8.946278353392787,2.6873760238103026 9.4673279672818,2.995342803594591 c1.1363140913294818,-0.44954355477598285 2.7000308388469048,-0.48495738000068567 3.8520758006921243,-0.04585736883426177 c0.47976317782640654,-0.48244464746182186 0.6658644950134527,-1.2197746038448107 0.7676324418251137,-1.8638193607021152 C14.213791822122491,1.8350100278671837 14.199253544006538,3.4543876312984345 14.199821444041618,3.4543876312984345 z" id="svg_3"/>
	</g>
</g><g id="Layer_1" class="">
	<polygon points="7.160880267620087,6.475948296487331 7.587858855724335,8.225281678140163 6.291083991527557,7.022624932229519 " id="svg_4"/>
	<polygon points="5.911554992198944,7.241310082376003 6.370163142681122,8.33458610624075 5.405498683452606,7.656775437295437 " id="svg_5"/>
	<polygon points="4.867808520793915,8.094069443643093 5.089204967021942,9.187422715127468 4.425015151500702,8.553270302712917 " id="svg_6"/>
	<polygon points="11.936793029308319,11.024152718484402 11.525629699230194,11.898815117776394 12.253055274486542,11.439613305032253 " id="svg_7"/>
	<polygon points="12.58516377210617,12.03002830594778 11.921003997325897,12.72974868863821 12.838221251964569,12.401758156716824 " id="svg_8"/>
	<polygon points="10.972097098827362,2.540066681802273 11.462366759777069,4.026976548135281 11.778631865978241,2.518237553536892 " id="svg_9"/>
	<polygon points="8.489288032054901,4.704786263406277 9.264189422130585,5.273291550576687 8.568340957164764,5.338937245309353 " id="svg_10"/>
	<polygon points="8.67905205488205,5.8637847527861595 9.153477370738983,6.126129113137722 8.758133590221405,6.279170952737331 " id="svg_11"/>
	<polygon points="14.214074790477753,5.120329819619656 13.581490218639374,5.492056809365749 14.103335082530975,5.601360760629177 " id="svg_12"/>
	<polygon points="13.961020171642303,6.191695176064968 13.470805823802948,6.388552628457546 13.86612194776535,6.585330925881863 " id="svg_13"/>
</g><g id="Calque_4" class="">
	<rect x="8.234669389813519" y="7.832824078258165" width="1.5262068563560311" height="0.2604604322315856" id="svg_14"/>
	<rect x="8.234669389813519" y="7.20746776764847" width="1.5262068563560311" height="0.26053895512342506" id="svg_15"/>
	<rect x="12.895067773283843" y="7.832824078258165" width="1.526178461281586" height="0.2604604322315856" id="svg_16"/>
	<rect x="12.895067773283843" y="7.20746776764847" width="1.526178461281586" height="0.26053895512342506" id="svg_17"/>
	<g id="svg_18">
		<path d="M12.357151485174374,5.662922489186091 h-1.5810377451097475 h-0.17565192979120578 h-0.7304348964826198 v-0.23446935302252886 h0.7739929385008434 c0.0952938712919802,-0.5642654987483829 0.11414819781594926,-1.103560723922367 -0.0007950635382939212,-1.376977431297283 c-0.0490666886413371,-0.11621387992244407 -0.11687412496269026,-0.17055172509574265 -0.21364453867199396,-0.17055172509574265 c-0.4425088401542807,0 -0.6253163301595086,0.6470286287573916 -0.6329262115646552,0.6745116429113986 l0.00011357884395306141,-0.00015704377349294753 l-0.15878525920531575,-0.08237051655490328 c0.009086423822469833,-0.03376484550116647 0.23056800740282746,-0.8264534356055306 0.7915978861107058,-0.8264534356055306 c0.15657043976401913,0 0.2811112384614877,0.09940997905860738 0.360049546873022,0.2870796925651725 c0.14015809036925256,0.3329370613994345 0.12368894282954263,0.9089809959339271 0.028735813884732998,1.494918816850381 h1.358136411441698 c0.18042230520565802,-0.7329326744399783 0.5571681514909852,-1.0785119164001045 1.1866301588849255,-1.0785119164001045 v0.23439083515615441 c-0.6822768502235305,0 -0.8733757005129352,0.3999170871334258 -1.009899215537888,0.8441210892846946 h0.7410546550520456 l-0.0017037059205409037,0.23329151266021556 L12.357151485174374,5.662922489186091 z" id="svg_19"/>
		<path d="M12.468630548173207,6.820899568107386 l0.001079013555832197,-0.00023556968061148363 c-0.20115070882375338,-0.4101250610623731 -0.2648692544249951,-0.7602586367797487 -0.18076304173751725,-1.1589193576437418 l-0.17275563147087966,0.0011778403623132925 c-0.060197560731518274,0.2654073784378459 -0.036061745272341,0.6652459396641529 0.11216054187787018,1.0083124571261601 h-1.7256822550606026 c0.10500498747915867,-0.2907702654663496 0.20234330122353864,-0.6453011231267366 0.2734445647267094,-1.0083124571261601 h-0.17565192979120578 c-0.07837040837645788,0.38491921780736266 -0.18848650198661676,0.7658337671258176 -0.31240260831937644,1.0675972414700674 l-0.040093843662820296,0.09752542965445962 l0.9683856217873769,0.8428647230152627 l-0.5451854293481893,0.4967358157867949 l0.09336300768353306,0.19583609425787218 l0.6093582961405547,-0.5554709348623608 l0.6578002924171829,0.5935545363994202 l0.0903531247039426,-0.19842734466311032 l-0.6099262019909422,-0.5217060974019384 c0,0 0.9119362094287996,-0.8190722817624322 0.9572547496971948,-0.859040440744384 C12.469084869364334,6.821841846829834 12.468914498190747,6.821370707468608 12.468630548173207,6.820899568107386 zM11.371842400471472,7.529176056519951 l-0.7162941472281596,-0.6235502830922909 l1.3998203821811077,0.0004711393612229668 L11.371842400471472,7.529176056519951 z" id="svg_20"/>
	</g>
</g><g id="Calque_2" class="">
	<path d="M14.48442527702332,3.1716266947691514 c-0.001079013555832197,-0.40769085443062814 -0.09290868649240963,-2.1307971929563783 -0.26168900608713075,-2.6052325034403854 c-0.4576150183053086,0.24043709682270206 -1.2903857616346674,1.0195412276439273 -1.4788722694365948,1.816234486237199 c-0.9032473202831321,-0.18649186510350793 -1.9214946884348274,-0.16442693752207652 -2.8134975577838244,0.048998284507841314 c-0.1490173506885049,-0.8571558913402366 -0.8969720062865404,-1.5131361277571425 -1.4612389256619147,-1.8826648547435934 c-0.23800751181907726,0.5553138910888678 -0.3434668204893595,1.842932273482997 -0.31663347404825726,2.756310551359935 c-0.0010222212262000435,0.000942278722445935 -0.0021296309468483176,0.0018845494041477427 -0.0031518521730483635,0.002905345992968089 c0.10466424513198823,3.8354506508947557 1.4654413952259795,6.223488841537672 3.2449039220127394,7.670822783923137 c1.8307440290540828,-1.446391671703763 3.138621159454659,-4.266148711629261 3.087964343736734,-7.8091015914270105 C14.482948728790685,3.170527372273215 14.483743792328982,3.1709985116344352 14.48442527702332,3.1716266947691514 zM12.961029530856626,2.4321766273421472 c0.006644446693267148,0.00164897972353626 0.013288893386534323,0.003376485354191054 0.019990132409433613,0.005103990984845854 C12.97437521657279,2.435553104655596 12.967730769879529,2.4338256070656827 12.961029530856626,2.4321766273421472 zM12.847165283058214,2.4050077007351263 c0.016014820533275253,0.0035335291276840015 0.03220001224013572,0.007538197616590974 0.04827162510304313,0.011307296424886459 C12.87936529529835,2.412545898351719 12.863293682435444,2.40869828167705 12.847165283058214,2.4050077007351263 zM14.199622676703214,3.448341369631885 c0.047079032703257945,3.191405894037452 -1.13052149468883,5.731385877374503 -2.7791395184320247,7.034080655001812 c-2.798221008459212,-1.9278940404431386 -3.3253471690064145,-6.81138972972465 -2.8481679433179785,-9.430913401490008 c0.13274697048719644,1.0014809605106596 0.3735939941122786,1.6295855773601988 0.8951831176868627,1.9377094009179816 c1.1358881604878641,-0.44954355477598285 2.6996617003349197,-0.485035905907804 3.8515362910065525,-0.045778842927143196 c0.48004712784394504,-0.48260169123531504 0.6662052373606233,-1.2197746038448107 0.7678596053283322,-1.8638193607021152 C14.213877004801624,1.8291208180148715 14.199225147841723,3.4480272740441533 14.199622676703214,3.448341369631885 z" id="svg_21"/>
	<path d="M15.392954074611044,14.489602232945764 c-0.28735815629326383,-0.4445180896982557 -0.8503756909392218,-0.654880921961712 -1.3204845449080815,-0.6393333873673074 c-0.33369891778786,-0.5491891035152014 -2.2681985495916828,-3.3659622795813573 -2.2681985495916828,-3.3659622795813573 l-0.13408154371106198,0.23344855643370846 l2.3355516647219132,3.476679563105595 l0.10137041795017067,-0.012014005466720927 c0.634573125155564,-0.07514640648529822 0.9953041509076153,0.4007023140416345 1.090768387557869,0.5483253506998746 c0.0700222557626498,0.10828306885174864 0.11227412653713452,0.20706486477564 0.13527413611084735,0.284566960026309 h-1.2837413149414 c-2.943944526150587,-2.124044222247996 -5.529088895972882,-3.621868385091346 -8.275034571288076,-3.9489947545048443 c0.006019754328558448,-0.5283805422032022 0.07405435415312905,-1.1264894043191265 0.20458651101433992,-1.7929917102527102 l-0.25257418609984505,-0.09462008366149162 c-0.13419512255501514,0.6851122302944502 -0.20489885719669443,1.3055215977131618 -0.21287787129851599,1.8600502618938197 c-0.2861087715638465,-0.02622664788457545 -0.5740916144065078,-0.03981110716771411 -0.8646016228728197,-0.03981110716771411 c-0.24638406059770143,0 -0.47076193668307365,0.03164472641640719 -0.6754052400270455,0.08661074668367766 c-0.26691370269270664,-0.36882202598536007 -0.4943014559423584,-0.7203690117456597 -0.6875299371786112,-1.0540127741461847 c1.2756487219956247,-1.8372786252705546 3.381597808211278,-3.4975666503247123 5.206634429119156,-4.108160657268581 l-0.059033358681237796,-0.3535100610715666 c-1.9651095227826827,0.6551950095086984 -4.116064808899689,2.4391565861947737 -5.314649293762594,4.162027363080656 c-0.5562311129439217,-1.0380726341384203 -0.7769176329859855,-1.8898889648131973 -0.8424534633517208,-2.535425657620545 c-0.0828000356284284,-0.8153031829541373 0.05795434512540558,-1.5632337347609224 0.4070149949170154,-2.1629130587340084 c0.5464632102424225,-0.9386626470390674 1.3229265162219725,-1.004778927998476 2.1212540375203948,-0.8191508076695526 c-0.01558889550696785,0.17432082390403783 0.0009938250613839678,0.34094639837724855 0.05148026960572361,0.4440469503370324 c0.21114577502847034,0.43116920009572846 1.345869739281365,0.5826398614693824 2.023205842916857,0.16481955097618084 c-0.49983849291497745,-0.9685013499584463 -1.5123216664061472,-1.4413662066260355 -1.7928649990172474,-1.2518904615816968 c-0.09293707684191449,0.06273978756447292 -0.163044515283701,0.17801139680521522 -0.21108898269883802,0.31244258763442095 c-0.2759433341855443,-0.06823639200342317 -0.550012591276962,-0.11904070804903774 -0.7503398403976054,-0.11699910683065295 c-0.7040842673974573,0.007145584162486541 -1.2423413000348416,0.34730674759078195 -1.6454945619196506,1.0398786576354486 c-0.3955433862949757,0.6794585820820074 -0.5554076590561232,1.523265575778972 -0.46232860139012866,2.440098864917219 c0.08816670724277342,0.8683846618580036 0.399121169309643,1.7919709136638904 0.9202843620426076,2.7497931503321653 c-0.0865765801661856,0.12838492916265792 -0.17025686782735613,0.25519939646815365 -0.2507852975001668,0.3797367089561422 c-1.270253654216464,1.9652709409791074 -2.1987725900289257,4.07266830613676 -2.1987725900289257,4.421859611172433 v0.1809167427981832 h1.6757353202018352 l-0.029360506249441715,-0.21452454452585665 c-0.09464078276245534,-0.6915511054151023 0.09435683274491702,-1.5559310987841992 0.48146688374694774,-2.20193893095277 c0.24303344108625174,-0.40557073534586885 0.6454768337425275,-0.8684631877651225 1.2774943971096238,-1.0820454535685327 c0.5619385210901261,0.7582955695092266 1.2778919317864261,1.563626348215027 2.0748280875313507,2.3406103599514934 h1.2452659887046724 v-0.1809167427981832 c0,-0.20415951878267213 -0.07320250410051422,-0.3828776246297216 -0.206148241926112,-0.5030961650003282 c-0.19672107575647174,-0.17785435303172215 -0.5004063987653644,-0.20235349528564292 -0.7793596101151878,-0.0708276504494054 c-0.2659482679808275,-0.40949687792765743 -0.41505080134847,-0.9565658703988443 -0.4472508194039162,-1.6360244524808503 c2.7026147909848763,0.33089546822179366 5.287673972312723,1.8399484015829102 8.204529598169485,3.9467961095129658 h1.604889610551387 l0.021012353635633668,-0.14542439970710622 C15.641127029623732,15.024657219950232 15.559519586395087,14.747235844086411 15.392954074611044,14.489602232945764 zM2.414389003951097,12.331793165196604 c-0.39636684599808575,0.6614768408558569 -0.606461997820228,1.5352795812456925 -0.5583323477259536,2.2854872878699863 h-1.0556436808325915 c0.21211120392503818,-0.6347005357436848 1.057006644405962,-2.4694664284753745 2.305396094934177,-4.322685193753693 c0.17201736026221795,0.2939897070470479 0.3636273240723775,0.5909632859941817 0.5740916144065078,0.8903710715730616 C3.066964605578014,11.439694596033632 2.6651175149369433,11.913423197475801 2.414389003951097,12.331793165196604 z" id="svg_22"/>
</g></g></g></svg>